<svg xmlns="http://www.w3.org/2000/svg" width="16" height="16" viewBox="0 0 16 16">
    <path d="M5.604,11.81c0.694,0.437 1.515,0.69 2.396,0.69c2.485,0 4.5,-2.015 4.5,-4.5c0,-0.881 -0.253,-1.702 -0.69,-2.396l-6.206,6.206Zm-1.414,-1.414l6.206,-6.206c-0.694,-0.437 -1.515,-0.69 -2.396,-0.69c-2.485,-0 -4.5,2.015 -4.5,4.5c0,0.881 0.253,1.702 0.69,2.396Zm3.81,4.104c-3.59,0 -6.5,-2.91 -6.5,-6.5c0,-3.59 2.91,-6.5 6.5,-6.5c3.59,0 6.5,2.91 6.5,6.5c0,3.59 -2.91,6.5 -6.5,6.5Z" style="fill:#c75450;"/>
</svg>
