<?xml version="1.0" encoding="UTF-8" standalone="no"?>
<!DOCTYPE svg PUBLIC "-//W3C//DTD SVG 1.1//EN" "http://www.w3.org/Graphics/SVG/1.1/DTD/svg11.dtd">
<svg width="100%" height="100%" viewBox="0 0 20 20" version="1.1" xmlns="http://www.w3.org/2000/svg" xml:space="preserve" style="fill-rule:evenodd;clip-rule:evenodd;stroke-linejoin:round;stroke-miterlimit:2;">
    <path d="M7.5,4.5C7.5,5.605 6.605,6.5 5.5,6.5C4.395,6.5 3.5,5.605 3.5,4.5C3.5,3.395 4.395,2.5 5.5,2.5C6.605,2.5 7.5,3.395 7.5,4.5ZM9,4.5C9,6.176 7.823,7.576 6.25,7.919L6.25,13.25L9.5,13.25C10.209,13.25 10.704,13.25 11.09,13.223C11.471,13.197 11.692,13.149 11.861,13.079C12.412,12.85 12.85,12.412 13.079,11.861C13.149,11.692 13.197,11.471 13.223,11.09C13.244,10.785 13.249,10.412 13.25,9.919C11.677,9.576 10.5,8.175 10.5,6.5C10.5,4.567 12.067,3 14,3C15.933,3 17.5,4.567 17.5,6.5C17.5,8.176 16.323,9.576 14.75,9.92C14.749,10.419 14.744,10.838 14.72,11.193C14.689,11.649 14.623,12.053 14.464,12.435C14.084,13.354 13.354,14.084 12.435,14.464C12.053,14.623 11.649,14.689 11.193,14.72C10.749,14.75 10.203,14.75 9.527,14.75L6.25,14.75L6.25,18C6.25,18.414 5.914,18.75 5.5,18.75C5.086,18.75 4.75,18.414 4.75,18L4.75,7.919C3.177,7.576 2,6.176 2,4.5C2,2.567 3.567,1 5.5,1C7.433,1 9,2.567 9,4.5ZM16,6.5C16,7.605 15.105,8.5 14,8.5C12.895,8.5 12,7.605 12,6.5C12,5.395 12.895,4.5 14,4.5C15.105,4.5 16,5.395 16,6.5Z" style="fill:#548af7;"/>
</svg>
