<svg xmlns="http://www.w3.org/2000/svg" width="16" height="16" viewBox="0 0 16 16">
    <g>
        <circle cx="10.5" cy="11.5" r="3.5" style="fill:#a664ae;"/>
        <path d="M8.39,7.525c-1.422,0.756 -2.39,2.252 -2.39,3.975c0,0.498 0.081,0.976 0.23,1.424c-0.236,0.05 -0.48,0.076 -0.73,0.076c-1.933,0 -3.5,-1.567 -3.5,-3.5c0,-1.933 1.567,-3.5 3.5,-3.5c1.2,0 2.259,0.604 2.89,1.525Z" style="fill:#a664ae;"/>
        <path d="M5.125,7.606c0.964,-3.543 4.04,-6.133 7.685,-6.133c0.379,0 0.751,0.028 1.116,0.082c0.032,-0.016 0.065,-0.033 0.099,-0.049l-0,1.135c-1.966,1.078 -3.218,2.706 -3.218,4.527c-0,0.426 0.069,0.842 0.199,1.242l-1.163,0c-0.087,-0.372 -0.133,-0.755 -0.133,-1.144c-0,-1.781 0.95,-3.406 2.514,-4.642c-3.033,0.275 -5.506,2.663 -6.134,5.786l-0.965,0l-0,-0.804Z" style="fill:#a664ae;"/>
    </g>
</svg>
