<svg xmlns="http://www.w3.org/2000/svg" width="16" height="16" viewBox="0 0 16 16">
    <g>
        <path d="M11,11l2,0l0,-6l-2,0l0,-4l2,0c1.105,0 2,0.895 2,2l0,10c0,1.105 -0.895,2 -2,2l-2,0l0,-4Z" style="fill:#6e6e6e;"/>
        <path d="M3,1.142c-0.583,0.343 -1,1.269 -1,2.358c0,1.089 0.417,2.015 1,2.358c-0.156,0.092 -0.325,0.142 -0.5,0.142c-0.828,-0 -1.5,-1.119 -1.5,-2.5c0,-1.381 0.672,-2.5 1.5,-2.5c0.175,-0 0.344,0.05 0.5,0.142Zm3,0c-0.583,0.343 -1,1.269 -1,2.358c0,1.089 0.417,2.015 1,2.358c-0.156,0.092 -0.325,0.142 -0.5,0.142c-0.828,-0 -1.5,-1.119 -1.5,-2.5c0,-1.381 0.672,-2.5 1.5,-2.5c0.175,-0 0.344,0.05 0.5,0.142Zm3,0c-0.583,0.343 -1,1.269 -1,2.358c0,1.089 0.417,2.015 1,2.358c-0.156,0.092 -0.325,0.142 -0.5,0.142c-0.828,-0 -1.5,-1.119 -1.5,-2.5c0,-1.381 0.672,-2.5 1.5,-2.5c0.175,-0 0.344,0.05 0.5,0.142Z" style="fill:#59a869;"/>
        <path d="M7.156,13l-0,0.223c-0,0.221 -0.038,0.572 -0.093,0.777l1.023,0l-0,1l-1.515,0c-0.473,0.576 -1.186,0.9 -1.992,0.9c-0.806,0 -1.52,-0.324 -1.992,-0.9l-1.587,0l0,-1l1.094,0c-0.054,-0.205 -0.092,-0.556 -0.092,-0.777l0,-0.223l-1.002,0l0,-1l1.002,0l0,-0.685c0,-0.108 0.02,-0.209 0.033,-0.315l-1.035,0l0,-1l1.362,0c0.246,-0.415 0.606,-0.709 1.039,-0.933l-0.905,-0.892l0.684,-0.675l1.298,1.282c0.035,-0.001 0.031,-0.006 0.065,-0.006c0.012,-0 0.058,0.005 0.071,0.005l1.292,-1.281l0.683,0.675l-0.879,0.868c0.454,0.222 0.83,0.526 1.085,0.957l1.291,-0l-0,1l-0.963,-0c0.013,0.106 0.033,0.207 0.033,0.315l-0,0.685l0.93,-0l-0,1l-0.93,-0Zm-3.656,-2l0,1l2.09,-0l0,-1l-2.09,-0Zm0,2l0,1l2.09,-0l0,-1l-2.09,-0Z" style="fill:#59a869;"/>
    </g>
</svg>
