<svg xmlns="http://www.w3.org/2000/svg" width="16" height="16" viewBox="0 0 16 16">
    <g>
        <g>
            <path d="M2.174,15.246l-1.415,-1.415l3.536,-3.535l1.414,1.414l-3.535,3.536Z" style="fill:#389fd6;"/>
            <path d="M7,14l-5,-5l5,0l-0,5Z" style="fill:#389fd6;"/>
        </g>
        <path d="M1.823,8c0.382,-1.155 1.078,-2.078 1.952,-2.7l0.866,1.495c0.209,0.359 0.592,0.579 1.007,0.578c0.197,0 0.39,-0.05 0.562,-0.147l0.406,-0.227l0.014,0c0.479,-0.298 0.931,-0.638 1.351,-1.016c0.043,-0.041 0.067,-0.098 0.065,-0.158c-0.002,-0.059 -0.029,-0.115 -0.075,-0.153c-0.086,-0.069 -0.209,-0.065 -0.291,0.009c-0.398,0.354 -0.826,0.673 -1.279,0.954l-0.401,0.224l0.017,-0.012l-0.022,0.012c-0.345,0.195 -0.783,0.075 -0.98,-0.269l-0.917,-1.583c-0.102,-0.174 -0.126,-0.383 -0.067,-0.577c0.059,-0.193 0.196,-0.353 0.379,-0.44c5.34,-2.546 7.693,2.393 9.456,0.632c0.496,-0.469 0.535,-1.246 0.087,-1.761c-0.448,-0.515 -1.222,-0.586 -1.755,-0.16c-0.084,0.064 -0.202,0.056 -0.277,-0.018l-0.268,-0.274c-0.043,-0.041 -0.067,-0.097 -0.067,-0.156c0,-0.059 0.024,-0.115 0.067,-0.155c0.875,-0.817 2.24,-0.794 3.086,0.052c0.825,0.825 1.761,3.11 -1.802,5.775c-1.029,0.77 -1.39,2.308 -1.412,3.646c-0.001,0.116 -0.095,0.209 -0.211,0.209l-0.949,-0c-0.106,-0.001 -0.196,-0.08 -0.209,-0.186c-0.095,-0.719 -0.708,-1.256 -1.433,-1.256c-0.262,0 -0.509,0.07 -0.723,0.194l0,-2.532l-6.177,-0Zm9.282,-1.824l0,0.002c0.162,-0.12 0.218,-0.336 0.135,-0.519c-0.083,-0.183 -0.282,-0.283 -0.478,-0.241c-0.197,0.043 -0.337,0.216 -0.337,0.417l0.68,0.341Z" style="fill:#6e6e6e;"/>
    </g>
</svg>
