<svg xmlns="http://www.w3.org/2000/svg" width="13" height="13" viewBox="0 0 13 13">
    <path d="M11.543,9.038c-1.788,2.38 -5.605,1.581 -8.053,1.692c-0,0 -0.434,0.025 -0.871,0.097c0,-0 0.166,-0.07 0.377,-0.143c1.718,-0.594 2.531,-0.714 3.576,-1.251c1.963,-1.005 3.917,-3.194 4.313,-5.468c-0.747,2.188 -3.019,4.07 -5.088,4.833c-1.417,0.522 -3.978,1.032 -3.978,1.032l-0.104,-0.055c-1.742,-0.847 -1.791,-4.617 1.372,-5.833c1.387,-0.533 2.714,-0.24 4.212,-0.597c1.599,-0.38 3.451,-1.582 4.203,-3.145c0.845,2.503 1.859,6.417 0.041,8.838Z" style="fill:#b76db7;fill-rule:nonzero;"/>
</svg>
