<svg xmlns="http://www.w3.org/2000/svg" width="13" height="13" viewBox="0 0 13 13">
    <g>
        <path d="M10,6.039c-0.951,0.234 -2.17,0.375 -3.5,0.375c-3.038,-0 -5.5,-0.733 -5.5,-1.638l0,-1.269c1.217,0.702 3.226,1.16 5.5,1.16c2.274,-0 4.283,-0.458 5.5,-1.16l0,1.269c0,0.487 -0.713,0.924 -1.845,1.224l-0.155,0l0,0.039Zm-9,0.307c0.928,0.535 2.318,0.928 3.934,1.085c-0.398,0.474 -0.688,1.042 -0.832,1.666c-1.836,-0.252 -3.102,-0.786 -3.102,-1.402l-0,-1.349Zm3.594,5.753c-2.098,-0.231 -3.594,-0.832 -3.594,-1.537l-0,-1.378c0.744,0.43 1.786,0.768 3.003,0.965c0.026,0.714 0.239,1.38 0.591,1.95Zm1.906,-8.524c-3.038,0 -5.5,-0.733 -5.5,-1.637c0,-0.905 2.462,-1.638 5.5,-1.638c3.038,0 5.5,0.733 5.5,1.638c0,0.904 -2.462,1.637 -5.5,1.637Z" style="fill:#3592c4;"/>
        <g>
            <path d="M12.778,7.828l-1.131,-1.132l-4.243,4.243l1.131,1.131l4.243,-4.242Z" style="fill:#afb1b3;"/>
            <path d="M9.243,11.363l-2.687,-2.687l-1.132,1.132l2.687,2.687l1.132,-1.132Z" style="fill:#afb1b3;"/>
        </g>
    </g>
</svg>
