<svg xmlns="http://www.w3.org/2000/svg" width="13" height="13" viewBox="0 0 13 13">
    <path d="M1,3.507c1.217,0.702 3.226,1.16 5.5,1.16c2.274,0 4.283,-0.458 5.5,-1.16l0,1.269c0,0.905 -2.462,1.638 -5.5,1.638c-3.038,0 -5.5,-0.733 -5.5,-1.638l0,-1.269Zm11,2.839l0,1.349c0,0.86 -2.462,1.557 -5.5,1.557c-3.038,0 -5.5,-0.697 -5.5,-1.557l0,-1.349c1.217,0.701 3.226,1.16 5.5,1.16c2.274,0 4.283,-0.459 5.5,-1.16Zm0,2.838l0,1.378c0,0.905 -2.462,1.638 -5.5,1.638c-3.038,0 -5.5,-0.733 -5.5,-1.638l0,-1.378c1.217,0.702 3.226,1.16 5.5,1.16c2.274,0 4.283,-0.458 5.5,-1.16Zm-5.5,-5.609c-3.038,0 -5.5,-0.733 -5.5,-1.637c0,-0.905 2.462,-1.638 5.5,-1.638c3.038,0 5.5,0.733 5.5,1.638c0,0.904 -2.462,1.637 -5.5,1.637Z" style="fill:#389fd6;"/>
</svg>
