<svg xmlns="http://www.w3.org/2000/svg" width="13" height="13" viewBox="0 0 13 13">
    <path d="M10.525,2.5c-0,1.063 -0.664,1.971 -1.599,2.333l1.228,3.191c0.113,-0.016 0.229,-0.024 0.346,-0.024c0.178,-0 0.351,0.019 0.518,0.054l1.141,-2.583l0.912,0.41l-1.136,2.572c0.644,0.452 1.065,1.2 1.065,2.047c-0,1.381 -1.119,2.5 -2.5,2.5c-1.381,-0 -2.5,-1.119 -2.5,-2.5c-0,-0.909 0.485,-1.705 1.211,-2.142l-1.293,-3.36c-0.215,-0.009 -0.424,-0.046 -0.622,-0.106l-2.998,3.871c0.434,0.449 0.702,1.062 0.702,1.737c-0,1.381 -1.119,2.5 -2.5,2.5c-1.381,-0 -2.5,-1.119 -2.5,-2.5c-0,-0.872 0.446,-1.639 1.122,-2.086l-0.938,-3.531l0.966,-0.261l0.907,3.417c0.144,-0.026 0.292,-0.039 0.443,-0.039c0.345,-0 0.673,0.07 0.972,0.196l2.936,-3.79c-0.54,-0.458 -0.883,-1.142 -0.883,-1.906c-0,-1.381 1.119,-2.5 2.5,-2.5c1.381,-0 2.5,1.119 2.5,2.5Z" style="fill:#3592c4;"/>
</svg>
