<svg xmlns="http://www.w3.org/2000/svg" width="13" height="13" viewBox="0 0 13 13">
    <path d="M12.293,1.904c-0.786,-0.786 -2.053,-0.808 -2.865,-0.049c-0.04,0.038 -0.062,0.09 -0.062,0.144c-0,0.055 0.022,0.107 0.062,0.145l0.248,0.254c0.07,0.069 0.18,0.077 0.258,0.018c0.495,-0.396 1.214,-0.331 1.63,0.148c0.415,0.478 0.379,1.2 -0.081,1.635c-1.638,1.635 -3.822,-2.951 -8.781,-0.587c-0.17,0.081 -0.297,0.23 -0.352,0.409c-0.055,0.18 -0.032,0.374 0.063,0.536l0.851,1.469c0.183,0.319 0.589,0.431 0.91,0.25l0.02,-0.011l-0.016,0.011l0.373,-0.208c0.421,-0.261 0.818,-0.557 1.188,-0.885c0.076,-0.069 0.19,-0.073 0.27,-0.009c0.042,0.035 0.068,0.087 0.069,0.142c0.002,0.056 -0.02,0.109 -0.06,0.147c-0.39,0.351 -0.809,0.666 -1.254,0.943l-0.013,0l-0.378,0.211c-0.159,0.09 -0.338,0.137 -0.521,0.136c-0.385,0.002 -0.742,-0.203 -0.935,-0.536l-0.805,-1.388c-1.539,1.095 -2.484,3.199 -1.972,5.863c0.017,0.093 0.098,0.16 0.192,0.161l0.907,-0c0.104,0.002 0.192,-0.076 0.201,-0.18c0.088,-0.667 0.658,-1.166 1.331,-1.166c0.673,-0 1.243,0.499 1.331,1.166c0.012,0.098 0.095,0.172 0.193,0.172l0.888,0c0.098,-0 0.181,-0.074 0.193,-0.172c0.088,-0.667 0.658,-1.166 1.331,-1.166c0.673,-0 1.243,0.499 1.331,1.166c0.012,0.098 0.095,0.172 0.193,0.172l0.882,0c0.107,0 0.195,-0.086 0.196,-0.193c0.021,-1.243 0.356,-2.671 1.311,-3.386c3.309,-2.475 2.439,-4.596 1.673,-5.362Zm-3.374,3.738l-0.631,-0.316c-0,-0.187 0.13,-0.348 0.312,-0.388c0.182,-0.039 0.367,0.054 0.444,0.224c0.077,0.17 0.025,0.371 -0.125,0.482l0,-0.002Z" style="fill:#db5860;"/>
</svg>
