<svg xmlns="http://www.w3.org/2000/svg" width="13" height="13" viewBox="0 0 13 13">
    <g>
        <path d="M7,6l6,0l0,7l-6,0l0,-7Zm1,1l0,5l4,0l0,-5l-4,0Zm1,1l2,0l0,1l-2,0l0,-1Zm0,2l2,0l0,1l-2,0l0,-1Z" style="fill:#afb1b3;"/>
        <path d="M6,6.407c-2.803,-0.075 -5,-0.777 -5,-1.631l0,-1.269c1.127,0.65 2.933,1.091 5,1.153l0,1.747Zm0,2.839c-2.803,-0.072 -5,-0.739 -5,-1.551l0,-1.349c1.127,0.649 2.933,1.09 5,1.152l0,1.748Zm0,2.947c-2.803,-0.075 -5,-0.776 -5,-1.631l0,-1.378c1.127,0.65 2.933,1.091 5,1.153l0,1.856Zm0.5,-8.618c-3.038,0 -5.5,-0.733 -5.5,-1.637c0,-0.905 2.462,-1.638 5.5,-1.638c3.038,0 5.5,0.733 5.5,1.638c0,0.904 -2.462,1.637 -5.5,1.637Z" style="fill:#3592c4;"/>
    </g>
</svg>
