<svg xmlns="http://www.w3.org/2000/svg" width="13" height="13" viewBox="0 0 13 13">
    <g>
        <path d="M8.716,7.884l-5.851,-5.852c2.201,-1.773 5.023,-1.14 7.133,0.97c0.647,0.647 1.155,1.361 1.497,2.103l-2.779,2.779Zm-2.966,3.866c-0.972,-0.315 -1.916,-0.918 -2.749,-1.751c-2.108,-2.109 -2.742,-4.931 -0.969,-7.133l4.383,4.383l-2.583,2.583l1.918,1.918Z" style="fill:#b76db7;fill-rule:nonzero;"/>
        <g>
            <path d="M12.778,7.828l-1.131,-1.132l-4.243,4.243l1.131,1.131l4.243,-4.242Z" style="fill:#6e6e6e;fill-rule:nonzero;"/>
            <path d="M9.243,11.363l-2.687,-2.687l-1.132,1.132l2.687,2.687l1.132,-1.132Z" style="fill:#6e6e6e;fill-rule:nonzero;"/>
        </g>
    </g>
</svg>
