<svg xmlns="http://www.w3.org/2000/svg" width="16" height="16" viewBox="0 0 16 16">
    <g>
        <rect x="5" y="3" width="2" height="10" style="fill:#499c54;"/>
        <path d="M11,9l0,-2l-10,0l0,2l10,0Z" style="fill:#499c54;"/>
        <path d="M13.428,15.93c-0.975,0 -2.054,-0.338 -2.912,-1.027l0.702,-1.066c0.754,0.559 1.547,0.845 2.249,0.845c0.676,0 1.066,-0.286 1.066,-0.741l0,-0.026c0,-0.533 -0.728,-0.715 -1.534,-0.962c-1.014,-0.286 -2.145,-0.702 -2.145,-2.002l0,-0.026c0,-1.313 1.079,-2.106 2.444,-2.106c0.858,0 1.794,0.299 2.522,0.78l-0.624,1.118c-0.663,-0.403 -1.365,-0.65 -1.937,-0.65c-0.611,0 -0.962,0.299 -0.962,0.676l0,0.026c0,0.507 0.741,0.715 1.547,0.975c1.001,0.312 2.132,0.767 2.132,2.002l0,0.026c0,1.443 -1.118,2.158 -2.548,2.158Z" style="fill:#afb1b3;"/>
    </g>
</svg>
