<svg xmlns="http://www.w3.org/2000/svg" width="13" height="13" viewBox="0 0 13 13">
    <path d="M1.705,2.023l-1.705,8.521l2.341,-0l1.065,-5.706c-0,0 0.922,-0.805 1.631,-0.731c0.71,0.073 0.71,0.81 0.71,0.81l-0.993,5.633l2.342,0l1.134,-5.712c0,0 0.781,-0.805 1.561,-0.731c0.78,0.073 0.639,0.884 0.639,0.884l-1.065,5.553l2.413,-0l1.206,-6.504c0.142,-1.031 -0.467,-1.922 -1.277,-2.017c-0.811,-0.095 -1.632,0.108 -2.342,0.554c-0.709,0.445 -1.135,1.024 -1.135,1.024c0,-0 -0.366,-1.483 -1.49,-1.578c-1.124,-0.095 -1.632,0.182 -2.128,0.474c-0.497,0.293 -0.781,0.665 -0.781,0.665l0.196,-1.139l-2.322,-0Z" style="fill:#c75450;"/>
</svg>
