<svg xmlns="http://www.w3.org/2000/svg" width="16" height="16" viewBox="0 0 16 16">
    <g>
        <path d="M13,7.525c-0.164,-0.017 -0.331,-0.025 -0.5,-0.025c-2.593,0 -4.724,1.973 -4.975,4.5l-6.525,0l0,-10l4.6,0l1.156,2l6.244,0l0,3.525Z" style="fill:#6e6e6e;"/>
        <path d="M15.095,14.798c-0.648,0.687 -1.582,1.096 -2.599,1.043c-1.642,-0.086 -2.943,-1.346 -3.134,-2.924l1.029,0.09c0.218,1.003 1.084,1.777 2.158,1.833c0.722,0.038 1.384,-0.257 1.838,-0.75l-1.155,-1.154l2.777,-0l0,2.777l-0.914,-0.915Zm-4.847,-4.573c0.648,-0.685 1.581,-1.093 2.596,-1.039c1.62,0.084 2.908,1.312 3.126,2.86l-1.033,-0.091c-0.238,-0.973 -1.091,-1.718 -2.144,-1.774c-0.722,-0.037 -1.384,0.257 -1.838,0.75l1.157,1.157l-2.777,0l-0,-2.776l0.913,0.913Z" style="fill:#389fd6;"/>
    </g>
</svg>
