<svg xmlns="http://www.w3.org/2000/svg" width="13" height="13" viewBox="0 0 13 13">
    <path d="M4.029,10.876c-0.02,-1.984 -0.003,-3.057 0.051,-3.22c0.149,-0.444 0.5,-0.73 1.049,-0.855c2.107,-0.03 3.177,-0.048 3.212,-0.054c0.302,-0.052 0.5,-0.13 0.687,-0.27c0.222,-0.168 0.405,-0.454 0.487,-0.762c0.042,-0.154 0.07,-0.726 0.085,-1.715l1.181,0c0.566,0.158 0.976,0.665 1.151,1.474c0.067,0.311 0.068,1.895 0.014,2.148c-0.053,0.249 -0.123,0.452 -0.226,0.661c-0.209,0.42 -0.518,0.705 -0.907,0.837c-0.149,0.051 -1.549,0.078 -4.201,0.082l-0,0.359l2.617,0.01c0.005,0.88 0.006,1.332 0.003,1.357c-0.011,0.089 -0.049,0.196 -0.104,0.289c-0.056,0.096 -0.226,0.267 -0.342,0.344c-0.351,0.233 -0.887,0.376 -1.594,0.423c-0.237,0.016 -0.574,0.021 -0.828,0.011c-1.315,-0.048 -2.128,-0.438 -2.335,-1.119Zm-1.667,-1.876c-0.297,-0.054 -0.589,-0.182 -0.796,-0.438c-0.391,-0.485 -0.589,-1.293 -0.564,-2.309c0.016,-0.632 0.11,-1.102 0.302,-1.502c0.248,-0.515 0.618,-0.82 1.118,-0.922c0.11,-0.022 3.986,-0.024 3.995,-0.027c0.015,-0.006 0.016,-0.365 0.015,-0.366c-0.001,-0.001 -0.875,-0.006 -2.621,-0.014c-0.004,-0.945 0.015,-1.463 0.058,-1.554c0.221,-0.475 0.872,-0.764 1.916,-0.849c0.076,-0.006 0.28,-0.014 0.454,-0.017c1.156,-0.023 2.003,0.188 2.449,0.611c0.049,0.046 0.292,0.41 0.324,0.521c0.015,1.934 0.017,2.932 0.005,2.994c-0.023,0.121 -0.078,0.291 -0.124,0.382c-0.16,0.317 -0.453,0.545 -0.843,0.654c-0.252,0.071 -3.372,0.077 -3.605,0.143c-0.453,0.128 -0.785,0.481 -0.92,0.976c-0.041,0.149 -0.065,0.721 -0.072,1.717l-1.091,0Z" style="fill:#499c54;fill-rule:nonzero;"/>
</svg>
