<svg xmlns="http://www.w3.org/2000/svg" width="13" height="13" viewBox="0 0 13 13">
    <g id="Layer_2">
        <g id="Layer_1-2">
            <g>
                <rect x="0" y="0" width="13" height="13" style="fill:#eda200;fill-opacity:0;"/>
                <g>
                    <path d="M9.5,3.12l0,-1.12l0.5,0l0,-1l-3,0l0,1l0.5,0l0,1.12c-2.04,0.465 -3.5,2.295 -3.5,4.387c0,2.469 2.031,4.5 4.5,4.5c2.469,0 4.5,-2.031 4.5,-4.5c0,-2.092 -1.46,-3.922 -3.5,-4.387Zm-1,7.88c-0.01,0 -0.019,0 -0.029,0c-1.92,0 -3.5,-1.58 -3.5,-3.5c0,-1.92 1.58,-3.5 3.5,-3.5c0.595,0 1.179,0.152 1.699,0.44l0.25,-0.19c0.164,-0.123 0.364,-0.19 0.57,-0.19c0.521,0 0.95,0.429 0.95,0.95c0,0.206 -0.067,0.406 -0.19,0.57l-0.19,0.25c0.287,0.517 0.438,1.099 0.438,1.69c-0,1.909 -1.571,3.48 -3.48,3.48c-0.006,0 -0.012,0 -0.018,0Z" style="fill:#eda200;fill-rule:nonzero;"/>
                    <path d="M11,4.75c-0.049,-0.015 -0.101,-0.015 -0.15,-0l-2.78,2.25c-0.171,0.131 -0.271,0.335 -0.27,0.55c0,0.384 0.316,0.7 0.7,0.7c0.215,0.001 0.419,-0.099 0.55,-0.27l2.15,-2.83c0.032,-0.043 0.05,-0.096 0.05,-0.15c-0,-0.137 -0.113,-0.25 -0.25,-0.25Z" style="fill:#eda200;fill-rule:nonzero;"/>
                </g>
                <g>
                    <path d="M3.76,5l-2.76,0l0,1l2.31,0c0.109,-0.35 0.26,-0.686 0.45,-1Z" style="fill:#eda200;fill-rule:nonzero;"/>
                    <path d="M3.28,9l-2.28,0l0,1l2.71,0c-0.179,-0.317 -0.323,-0.652 -0.43,-1Z" style="fill:#eda200;fill-rule:nonzero;"/>
                    <rect x="0" y="7" width="3" height="1" style="fill:#eda200;"/>
                </g>
            </g>
        </g>
    </g>
</svg>
