<svg xmlns="http://www.w3.org/2000/svg" width="13" height="13" viewBox="0 0 13 13">
    <g>
        <rect x="0" y="0" width="13" height="13" style="fill:#ffe6ff;fill-opacity:0;"/>
        <path d="M13,9.51c-0.005,1.916 -1.584,3.49 -3.5,3.49c-1.92,-0 -3.5,-1.58 -3.5,-3.5c0,-1.92 1.58,-3.5 3.5,-3.5c0.003,-0 0.007,-0 0.01,0c1.916,0.005 3.49,1.584 3.49,3.5c0,0.003 0,0.007 0,0.01Zm-1,0c0,-0.003 0,-0.007 0,-0.01c0,-1.369 -1.124,-2.496 -2.493,-2.5l-0.007,0l0,5c1.369,0 2.496,-1.124 2.5,-2.493l0,0.003Z" style="fill:#6e6e6e;fill-rule:nonzero;"/>
        <path d="M5.226,10.84l-0.226,0.16c-2.41,-1.7 -5,-3.46 -5,-10c1.59,-0.64 3.286,-0.979 5,-1c1.714,0.021 3.41,0.36 5,1c0.019,1.346 -0.124,2.689 -0.426,4l-0.054,0c-0.337,0.001 -0.672,0.04 -1,0.116c0.301,-1.114 0.462,-2.262 0.48,-3.416c-1.291,-0.43 -2.639,-0.666 -4,-0.7l0,8.77l0.026,-0.019c0.021,0.37 0.088,0.736 0.2,1.089Z" style="fill:#59a869;fill-rule:nonzero;"/>
    </g>
</svg>
