<svg xmlns="http://www.w3.org/2000/svg" width="16" height="16" viewBox="0 0 16 16">
    <g>
        <path d="M12.95,12.95c-2.734,2.733 -7.166,2.733 -9.9,-0c-2.733,-2.734 -2.733,-7.166 0,-9.9c2.734,-2.733 7.166,-2.733 9.9,0c2.733,2.734 2.733,7.166 -0,9.9Zm-4.95,0.25c2.872,-0 5.2,-2.328 5.2,-5.2c-0,-2.872 -2.328,-5.2 -5.2,-5.2c-2.872,-0 -5.2,2.328 -5.2,5.2c-0,2.872 2.328,5.2 5.2,5.2Z" style="fill:#b066b0;"/>
        <g>
            <rect x="7.2" y="4.7" width="1.6" height="4" style="fill:#b066b0;"/>
            <path d="M10.476,11.004l0.918,-1.31l-3.276,-2.294l-0.918,1.31l3.276,2.294Z" style="fill:#b066b0;"/>
        </g>
    </g>
</svg>
