<svg xmlns="http://www.w3.org/2000/svg" width="13" height="13" viewBox="0 0 13 13">
    <path d="M5.688,3.25C5.687,3.25 5.687,3.25 5.686,3.25C3.457,3.25 1.623,5.084 1.623,7.313C1.623,9.542 3.457,11.376 5.686,11.376C7.915,11.376 9.749,9.542 9.749,7.313C9.749,7.313 9.749,7.312 9.749,7.312L8.937,7.312C8.937,9.095 7.47,10.562 5.687,10.562C3.904,10.562 2.437,9.095 2.437,7.312C2.437,5.529 3.904,4.062 5.687,4.062L5.687,3.25L5.688,3.25Z" style="fill:#499c54;"/>
    <path d="M11.375,6.5C11.375,3.826 9.174,1.625 6.5,1.625L6.5,6.5L11.375,6.5Z" style="fill:#499c54;"/>
</svg>
