<svg xmlns="http://www.w3.org/2000/svg" width="13" height="13" viewBox="0 0 13 13">
    <g>
        <g opacity="0">
            <rect x="0" y="0" width="13" height="13" style="fill:#389fd6;"/>
        </g>
        <path d="M8,10l0,2l-7,0l0,-7l2,0c0,2.743 2.257,5 5,5Zm4,-5c0,2.194 -1.806,4 -4,4c-2.194,0 -4,-1.806 -4,-4c-0,-2.194 1.806,-4 4,-4c2.194,-0 4,1.806 4,4Zm-1,0c0,-1.646 -1.354,-3 -3,-3c-1.646,0 -3,1.354 -3,3c0,1.646 1.354,3 3,3c1.646,0 3,-1.354 3,-3Z" style="fill:#389fd6;fill-rule:nonzero;"/>
    </g>
</svg>
