<svg xmlns="http://www.w3.org/2000/svg" width="13" height="13" viewBox="0 0 13 13">
    <g>
        <g opacity="0">
            <rect x="0" y="0" width="13" height="13" style="fill:#499c54;"/>
        </g>
        <path d="M5,4c-2.194,0 -4,1.806 -4,4c0,2.194 1.806,4 4,4c2.194,0 4,-1.806 4,-4c0,-2.194 -1.806,-4 -4,-4Zm0,7l0,-6c1.646,0 3,1.354 3,3c0,1.646 -1.354,3 -3,3Zm7,-6c-0.004,1.44 -0.788,2.771 -2.047,3.471c0.014,-0.157 0.047,-0.31 0.047,-0.471c-0.007,-0.241 -0.031,-0.481 -0.072,-0.719c0.679,-0.567 1.072,-1.408 1.072,-2.293c0,-1.639 -1.349,-2.988 -2.988,-2.988c-0.004,-0 -0.008,-0 -0.012,0l0,2.023c-0.861,-0.66 -1.915,-1.02 -3,-1.023c-0.161,0 -0.314,0.033 -0.471,0.047c0.703,-1.261 2.039,-2.046 3.483,-2.046c2.188,0 3.988,1.801 3.988,3.988c0,0.004 0,0.007 0,0.011Z" style="fill:#499c54;fill-rule:nonzero;"/>
    </g>
</svg>
