<svg xmlns="http://www.w3.org/2000/svg" width="13" height="13" viewBox="0 0 13 13">
    <g id="toolWindowNuGet">
        <path id="Fill-2" d="M8.75,11c-1.243,0 -2.25,-1.008 -2.25,-2.25c0,-1.242 1.007,-2.25 2.25,-2.25c1.243,0 2.25,1.008 2.25,2.25c0,1.242 -1.007,2.25 -2.25,2.25m-4.75,-5.5c0,-0.828 0.671,-1.5 1.5,-1.5c0.829,0 1.5,0.672 1.5,1.5c0,0.828 -0.671,1.5 -1.5,1.5c-0.829,0 -1.5,-0.672 -1.5,-1.5m6,-2.5l-5,0c-1.104,0 -2,0.896 -2,2l0,5c0,1.104 0.896,2 2,2l5,0c1.104,0 2,-0.896 2,-2l0,-5c0,-1.104 -0.896,-2 -2,-2m-8,-2.5c0.829,0 1.5,0.672 1.5,1.5c0,0.828 -0.671,1.5 -1.5,1.5c-0.829,0 -1.5,-0.672 -1.5,-1.5c0,-0.828 0.671,-1.5 1.5,-1.5" style="fill:#389fd6;"/>
    </g>
</svg>
