<svg xmlns="http://www.w3.org/2000/svg" width="13" height="13" viewBox="0 0 13 13">
    <g>
        <g opacity="0">
            <rect x="0" y="0" width="13" height="13" style="fill:#f0a732;"/>
        </g>
        <path d="M10.53,8.7l-2.53,-3.7l0,-3l0.5,-0c0.274,-0 0.5,-0.226 0.5,-0.5c0,-0.274 -0.226,-0.5 -0.5,-0.5l-4,-0c-0.274,-0 -0.5,0.226 -0.5,0.5c0,0.274 0.226,0.5 0.5,0.5l0.5,-0l0,3l-2.53,3.7c-0.304,0.438 -0.468,0.959 -0.47,1.492c-0.001,0.029 -0.002,0.057 -0.002,0.086c-0,0.945 0.777,1.722 1.722,1.722c0.001,0 0.003,0 0.004,0l5.552,0c0.001,0 0.003,0 0.004,0c0.945,0 1.722,-0.777 1.722,-1.722c0,-0.029 -0.001,-0.057 -0.002,-0.086c-0.002,-0.533 -0.166,-1.054 -0.47,-1.492Zm-4.186,-1.7l-1.544,2.266c-0.189,0.272 -0.292,0.595 -0.295,0.926c0,0.034 0.008,0.808 0.725,0.808l-1.5,0c-0.722,0 -0.73,-0.774 -0.73,-0.808c0.004,-0.332 0.109,-0.655 0.3,-0.926l2.7,-3.957l0,-3.309l1,0l0,3.309l1.156,1.691l-1.812,0Z" style="fill:#f0a732;fill-rule:nonzero;"/>
    </g>
</svg>
