<svg xmlns="http://www.w3.org/2000/svg" width="16" height="16" viewBox="0 0 16 16">
    <g>
        <rect x="4" y="2" width="2" height="9" style="fill:#3592c4;"/>
        <path d="M5,14l4,-4l-8,0l4,4Z" style="fill:#3592c4;fill-rule:nonzero;"/>
        <path d="M13.239,4l1.305,0l-4.754,8l-1.278,0l4.727,-8Z" style="fill:#afb1b3;fill-rule:nonzero;"/>
        <path d="M9,8c-1.105,0 -2,-0.895 -2,-2c0,-1.105 0.895,-2 2,-2c1.105,0 2,0.895 2,2c0,1.105 -0.895,2 -2,2Zm0,-1c0.552,0 1,-0.448 1,-1c0,-0.552 -0.448,-1 -1,-1c-0.552,0 -1,0.448 -1,1c0,0.552 0.448,1 1,1Zm5,5c-1.105,0 -2,-0.895 -2,-2c0,-1.105 0.895,-2 2,-2c1.105,0 2,0.895 2,2c0,1.105 -0.895,2 -2,2Zm0,-1c0.552,0 1,-0.448 1,-1c0,-0.552 -0.448,-1 -1,-1c-0.552,0 -1,0.448 -1,1c0,0.552 0.448,1 1,1Z" style="fill:#afb1b3;fill-rule:nonzero;"/>
    </g>
</svg>
