<svg xmlns="http://www.w3.org/2000/svg" width="16" height="16" viewBox="0 0 16 16">
    <g>
        <rect x="4" y="2" width="2" height="9" style="fill:#389fd6;"/>
        <path d="M5,14l4,-4l-8,0l4,4Z" style="fill:#389fd6;fill-rule:nonzero;"/>
        <g>
            <path d="M11.117,7c-0.943,0 -1.717,-0.451 -1.717,-1.44l0,-0.019c0,-1.091 0.789,-1.541 1.974,-1.541c0.504,0 0.909,0.03 1.264,0.151l0,-0.084c0,-0.588 -0.364,-0.914 -1.073,-0.914c-0.542,0 -0.924,0.103 -1.381,0.27l-0.355,-1.082c0.551,-0.242 1.092,-0.341 1.941,-0.341c0.774,0 1.334,0.145 1.689,0.5c0.373,0.373 0.541,0.923 0.541,1.595l0,2.902l-1.372,0l0,-0.541c-0.345,0.382 -0.821,0.544 -1.511,0.544Zm0.429,-0.889c0.662,0 1.11,-0.364 1.11,-0.878l0,-0.251c-0.242,-0.112 -0.56,-0.187 -0.905,-0.187c-0.606,0 -0.979,0.243 -0.979,0.69l0,0.019c0,0.383 0.317,0.607 0.774,0.607Z" style="fill:#6e6e6e;fill-rule:nonzero;"/>
            <path d="M9.65,14.001l0,-0.998l2.584,-2.855l-2.5,0l0,-1.148l4.264,0l0,0.998l-2.594,2.855l2.594,0l0,1.148l-4.348,0Z" style="fill:#6e6e6e;fill-rule:nonzero;"/>
        </g>
    </g>
</svg>
