<svg xmlns="http://www.w3.org/2000/svg" width="16" height="16" viewBox="0 0 16 16">
    <g>
        <rect x="4" y="2" width="2" height="9" style="fill:#3592c4;"/>
        <path d="M5,14l4,-4l-8,0l4,4Z" style="fill:#3592c4;"/>
        <g>
            <rect x="10" y="10" width="5" height="4" style="fill:#c75450;"/>
            <path id="visibilitysort_dark-a" d="M12.5,8.5c-0.276,0 -0.5,0.312 -0.5,0.696l0,1.608c0,0.384 0.224,0.696 0.5,0.696c0.276,0 0.5,-0.312 0.5,-0.696l0,-1.608c0,-0.384 -0.224,-0.696 -0.5,-0.696Zm0,-1c0.828,0 1.5,0.672 1.5,1.5l0,1.5c0,0.828 -0.672,1.5 -1.5,1.5c-0.828,0 -1.5,-0.672 -1.5,-1.5l0,-1.5c0,-0.828 0.672,-1.5 1.5,-1.5Z" style="fill:#c75450;fill-rule:nonzero;"/>
        </g>
        <g>
            <rect x="10" y="3" width="5" height="4" style="fill:#499c54;"/>
            <path id="visibilitysort_dark-b" d="M10,1.5c-0.552,0 -1,0.312 -1,0.696l0,1.304l2,0l0,-1.304c0,-0.384 -0.448,-0.696 -1,-0.696Zm2,2l-4,0l0,-1.5c0,-0.828 0.895,-1.5 2,-1.5c1.105,0 2,0.672 2,1.5l0,1.5Z" style="fill:#499c54;fill-rule:nonzero;"/>
        </g>
    </g>
</svg>
