<svg xmlns="http://www.w3.org/2000/svg" width="13" height="13" viewBox="0 0 13 13">
    <path d="M2.502,4.485C2.788,2.485 4.5,1 6.521,1C8.523,1 10.226,2.46 10.532,4.438L11.083,8L2,8L2.502,4.485Z" style="fill:#eda200;fill-rule:nonzero;"/>
    <path d="M1,10C1,8.343 2.343,7 4,7L9,7C10.657,7 12,8.343 12,10L1,10Z" style="fill:#eda200;fill-rule:nonzero;"/>
    <path d="M8.333,11C8.333,12.105 7.513,13 6.5,13C5.488,13 4.667,12.105 4.667,11C5.583,11 7.417,11 8.333,11Z" style="fill:#eda200;fill-rule:nonzero;"/>
</svg>
