<svg xmlns="http://www.w3.org/2000/svg" width="13" height="13" viewBox="0 0 13 13">
    <path d="M1,10c0,-1.657 1.343,-3 3,-3l5,0c1.657,0 3,1.343 3,3l-11,0Z" style="fill:#f0a732;fill-rule:nonzero;"/>
    <path d="M8.333,11c0,1.105 -0.82,2 -1.833,2c-1.012,0 -1.833,-0.895 -1.833,-2l3.666,0Z" style="fill:#f0a732;fill-rule:nonzero;"/>
    <path d="M10.772,5.99c-0.09,0.006 -0.18,0.01 -0.272,0.01c-1.933,0 -3.5,-1.567 -3.5,-3.5c0,-0.507 0.108,-0.989 0.302,-1.425c-0.253,-0.049 -0.515,-0.075 -0.781,-0.075c-2.021,0 -3.733,1.485 -4.019,3.485l-0.502,3.515l9.083,0l-0.311,-2.01Z" style="fill:#f0a732;fill-rule:nonzero;"/>
    <circle cx="10.5" cy="2.5" r="2.5" style="fill:#3592c4;"/>
</svg>
