<svg xmlns="http://www.w3.org/2000/svg" width="13" height="13" viewBox="0 0 13 13">
    <path d="M1,10C1,8.343 2.343,7 4,7L9,7C10.657,7 12,8.343 12,10L1,10Z" style="fill:#eda200;fill-rule:nonzero;"/>
    <path d="M8.333,11C8.333,12.105 7.513,13 6.5,13C5.488,13 4.667,12.105 4.667,11C5.583,11 7.417,11 8.333,11Z" style="fill:#eda200;fill-rule:nonzero;"/>
    <path d="M10.772,5.99C10.682,5.996 10.592,6 10.5,6C8.567,6 7,4.433 7,2.5C7,1.993 7.108,1.511 7.302,1.075C7.049,1.026 6.787,1 6.521,1C4.5,1 2.788,2.485 2.502,4.485L2,8L11.083,8L10.772,5.99Z" style="fill:#eda200;"/>
    <circle cx="10.5" cy="2.5" r="2.5" style="fill:#c75450;"/>
</svg>
