<svg xmlns="http://www.w3.org/2000/svg" width="13" height="13" viewBox="0 0 13 13">
    <g>
        <path d="M10.362,4.567l-1.239,0c-0.303,-1.894 -1.944,-3.341 -3.924,-3.341c-2.194,0 -3.973,1.779 -3.973,3.973c0,2.195 1.779,3.974 3.973,3.974c0.275,0 0.542,-0.028 0.801,-0.081l0,1.247c-0.261,0.04 -0.528,0.061 -0.8,0.061c-2.872,0 -5.2,-2.328 -5.2,-5.2c0,-2.872 2.328,-5.2 5.2,-5.2c2.657,0 4.849,1.994 5.162,4.567Z" style="fill:#afb1b3;"/>
        <rect x="4.992" y="2.77" width="1" height="2.724" style="fill:#afb1b3;"/>
        <path d="M5.284,4.787l0.706,0.707l-1.924,1.926l-0.706,-0.708l1.924,-1.925Z" style="fill:#afb1b3;"/>
        <path d="M7,4.767l6,4l-6,4l0,-8Z" style="fill:#499c54;"/>
    </g>
</svg>
