<svg xmlns="http://www.w3.org/2000/svg" width="13" height="13" viewBox="0 0 13 13">
    <g>
        <path d="M2.963,4.277l0.99,0.99l-1.415,1.414c-1.015,1.015 -1.015,2.661 0,3.677c1.016,1.015 2.662,1.015 3.677,0l1.415,-1.414l0.99,0.99l-1.415,1.414c-1.562,1.562 -4.094,1.562 -5.657,0c-1.562,-1.562 -1.562,-4.095 0,-5.657l1.415,-1.414Zm1.414,-1.415l1.414,-1.414c1.562,-1.562 4.095,-1.562 5.657,-0c1.562,1.562 1.562,4.095 0,5.657l-1.414,1.414l-0.99,-0.99l1.414,-1.414c1.015,-1.015 1.015,-2.661 0,-3.677c-1.015,-1.015 -2.662,-1.015 -3.677,-0l-1.414,1.414l-0.99,-0.99Z" style="fill:#f0a732;fill-rule:nonzero;"/>
        <path d="M7.912,3.57l-4.242,4.242l1.414,1.414l4.242,-4.242l-1.414,-1.414Z" style="fill:#f0a732;fill-rule:nonzero;"/>
    </g>
</svg>
