<svg xmlns="http://www.w3.org/2000/svg" width="13" height="13" viewBox="0 0 13 13">
    <g>
        <path d="M2.5,11.9l-1,0l0,-2.8c0,-0.614 1.214,-1.585 4.22,-3.614l0.56,0.828c-1.323,0.894 -2.314,1.603 -2.968,2.126c-0.317,0.254 -0.551,0.461 -0.7,0.617c-0.08,0.084 -0.112,0.134 -0.112,0.043l0,2.8Z" style="fill:#c75450;fill-rule:nonzero;"/>
        <path d="M10.28,11.9l1,0l0,-2.8c0,-0.614 -1.214,-1.585 -4.22,-3.614l-0.56,0.828c1.323,0.894 2.314,1.603 2.968,2.126c0.317,0.254 0.551,0.461 0.7,0.617c0.08,0.084 0.112,0.134 0.112,0.043l0,2.8Z" style="fill:#c75450;fill-rule:nonzero;"/>
        <circle cx="6.5" cy="2.6" r="2" style="fill:#c75450;"/>
        <ellipse cx="6.5" cy="5.85" rx="1.5" ry="1.65" style="fill:#c75450;"/>
        <path d="M6.5,11.9c1.381,0 2.5,-0.419 2.5,-1.8c0,-0.466 -0.355,-1.449 -1,-2.2c-0.488,-0.569 -1.258,-1 -1.5,-1c-0.328,0 -1.022,0.397 -1.5,1c-0.62,0.781 -1,1.846 -1,2.2c0,1.381 1.119,1.8 2.5,1.8Z" style="fill:#c75450;"/>
        <path d="M5.613,4.513l-0.226,0.974c-1.741,-0.404 -2.926,-1.492 -3.832,-3.259l0.89,-0.456c0.783,1.526 1.747,2.411 3.168,2.741Z" style="fill:#c75450;fill-rule:nonzero;"/>
        <path d="M7.055,4.513l0.226,0.974c1.741,-0.404 2.926,-1.492 3.832,-3.259l-0.89,-0.456c-0.783,1.526 -1.747,2.411 -3.168,2.741Z" style="fill:#c75450;fill-rule:nonzero;"/>
        <rect x="1.7" y="5.3" width="9.6" height="1" style="fill:#c75450;"/>
    </g>
</svg>
