<svg xmlns="http://www.w3.org/2000/svg" width="13" height="13" viewBox="0 0 13 13">
    <path d="M10.19,8.03l1.313,0l0,-1.346l-1.313,0l0,-0.898c0,-0.153 -0.028,-0.3 -0.047,-0.449l1.36,0l0,-1.346l-1.822,0c-0.36,-0.608 -0.891,-1.1 -1.532,-1.413l1.241,-1.226l-0.964,-0.952l-1.825,1.809c-0.017,-0.001 -0.082,-0.008 -0.1,-0.008c-0.048,0 -0.042,0.007 -0.091,0.009l-1.833,-1.81l-0.965,0.952l1.278,1.261c-0.612,0.315 -1.119,0.792 -1.467,1.378l-1.923,0l0,1.346l1.461,0c-0.019,0.149 -0.046,0.296 -0.046,0.449l0,0.898l-1.415,0l0,1.346l1.415,0l0,0.449c0,0.312 0.054,0.609 0.13,0.898l-1.545,0l0,1.346l2.24,0c0.667,0.814 1.675,1.347 2.812,1.347c1.138,0 2.146,-0.533 2.813,-1.347l2.138,0l0,-1.346l-1.443,0c0.076,-0.289 0.13,-0.586 0.13,-0.898l0,-0.449Z" style="fill:#499c54;"/>
</svg>
