<svg xmlns="http://www.w3.org/2000/svg" width="13" height="13" viewBox="0 0 13 13">
    <g>
        <path d="M8.607,6.99l-1.414,1.414l4,4.001l1.415,-1.415l-4.001,-4Z" style="fill:#b76db7;"/>
        <path d="M5.25,10c-2.623,0 -4.75,-2.127 -4.75,-4.75c0,-2.623 2.127,-4.75 4.75,-4.75c2.623,0 4.75,2.127 4.75,4.75c0,2.623 -2.127,4.75 -4.75,4.75Zm0,-1.9c1.574,0 2.85,-1.276 2.85,-2.85c0,-1.574 -1.276,-2.85 -2.85,-2.85c-1.574,0 -2.85,1.276 -2.85,2.85c0,1.574 1.276,2.85 2.85,2.85Z" style="fill:#b76db7;"/>
    </g>
</svg>
