<svg xmlns="http://www.w3.org/2000/svg" width="13" height="13" viewBox="0 0 13 13">
    <path d="M4.29,10.217c-0.528,-0.406 -0.93,-0.968 -1.136,-1.617l-0.254,0c-0.276,0 -0.5,-0.224 -0.5,-0.5l0,-0.6c0,-0.276 0.224,-0.5 0.5,-0.5l0.106,0c0.01,-0.163 0.031,-0.322 0.064,-0.478c-0.029,-0.14 -0.049,-0.308 -0.06,-0.522l-1.51,0l0,-1l1.5,0l0,-1.564c0,-0.847 0.088,-1.154 0.254,-1.464c0.165,-0.31 0.408,-0.553 0.718,-0.718c0.31,-0.166 0.617,-0.254 1.464,-0.254l2.128,0c0.847,0 1.154,0.088 1.464,0.254c0.31,0.165 0.553,0.408 0.718,0.718c0.166,0.31 0.254,0.617 0.254,1.464l0,1.564l1.5,0l0,1l-1.51,0c-0.011,0.214 -0.031,0.382 -0.06,0.522c0.033,0.156 0.054,0.315 0.064,0.478l0.106,0c0.276,0 0.5,0.224 0.5,0.5l0,0.6c0,0.276 -0.224,0.5 -0.5,0.5l-0.254,0c-0.206,0.649 -0.608,1.211 -1.136,1.617c1.856,0.425 2.29,1.362 2.29,1.783l-9,0c0,-0.421 0.434,-1.358 2.29,-1.783Z" style="fill:#f0a732;"/>
</svg>
