<svg xmlns="http://www.w3.org/2000/svg" width="13" height="13" viewBox="0 0 13 13">
    <path d="M6.5,0.813c-3.14,-0.001 -5.688,2.548 -5.688,5.687c0,3.14 2.548,5.688 5.688,5.688c3.14,0 5.688,-2.548 5.688,-5.688c0,-3.139 -2.548,-5.687 -5.688,-5.687Zm-0.569,10.197c-2.246,-0.278 -3.981,-2.19 -3.981,-4.51c0,-0.353 0.046,-0.688 0.119,-1.018l2.725,2.724l0,0.569c0,0.626 0.512,1.137 1.137,1.137l0,1.098Zm3.925,-1.444c-0.148,-0.461 -0.569,-0.791 -1.081,-0.791l-0.569,0l0,-1.706c0,-0.313 -0.256,-0.569 -0.568,-0.569l-3.413,0l0,-1.138l1.138,0c0.312,0 0.568,-0.255 0.568,-0.568l0,-1.138l1.138,0c0.625,0 1.137,-0.512 1.137,-1.137l0,-0.233c1.667,0.676 2.844,2.309 2.844,4.214c0,1.183 -0.455,2.258 -1.194,3.066Z" style="fill:#389fd6;fill-rule:nonzero;"/>
</svg>
