<svg xmlns="http://www.w3.org/2000/svg" width="16" height="16" viewBox="0 0 16 16">
    <g>
        <path d="M11,12l0,-1l3,0l0,1l-3,0Z" style="fill:#afb1b3;"/>
        <path d="M11,12l0,-3l1,0l0,3l-1,0Z" style="fill:#afb1b3;"/>
        <path d="M15,11.5c0,1.933 -1.567,3.5 -3.5,3.5c-1.933,0 -3.5,-1.567 -3.5,-3.5c0,-1.933 1.567,-3.5 3.5,-3.5c1.933,0 3.5,1.567 3.5,3.5Zm1,0c0,-2.485 -2.015,-4.5 -4.5,-4.5c-2.485,0 -4.5,2.015 -4.5,4.5c0,2.485 2.015,4.5 4.5,4.5c2.485,0 4.5,-2.015 4.5,-4.5Z" style="fill:#afb1b3;"/>
        <path d="M6.499,13.815c-2.379,-0.611 -4.161,-2.635 -4.457,-5.083l1.854,0.162c0.26,1.197 1.033,2.213 2.088,2.791c0.027,0.757 0.209,1.478 0.515,2.13Zm7.308,-7.32c-0.622,-0.291 -1.31,-0.469 -2.039,-0.507c-0.027,-0.002 -0.055,-0.003 -0.082,-0.004c-0.677,-1.234 -1.957,-2.099 -3.466,-2.178c-1.299,-0.068 -2.492,0.462 -3.31,1.35l2.083,2.083l-5,0l0,-5l1.645,1.644c1.166,-1.233 2.846,-1.966 4.675,-1.871c2.679,0.141 4.855,2.018 5.494,4.483Z" style="fill:#3592c4;"/>
    </g>
</svg>
