<svg xmlns="http://www.w3.org/2000/svg" width="16" height="16" viewBox="0 0 16 16">
    <g>
        <path d="M10.568,6.976l-2.496,-2.496l-6.072,6.038l0,2.482l2.496,0l6.072,-6.024Zm2.08,-2.08c0.267,-0.267 0.267,-0.981 0,-1.248l-1.248,-1.248c-0.267,-0.267 -0.981,-0.267 -1.248,0l-1.248,1.248l2.496,2.496l1.248,-1.248Z" style="fill:#eda200;fill-rule:nonzero;"/>
        <g>
            <path d="M7,13.6l0,-1.2l4,-2.4l0,1.2l-2.933,1.8l2.933,1.8l0,1.2l-4,-2.4Z" style="fill:#6e6e6e;"/>
            <path d="M12,14.8l2.933,-1.8l-2.933,-1.8l0,-1.2l4,2.4l0,1.2l-4,2.4l0,-1.2Z" style="fill:#6e6e6e;"/>
        </g>
    </g>
</svg>
