<svg xmlns="http://www.w3.org/2000/svg" width="16" height="16" viewBox="0 0 16 16">
    <g>
        <path d="M8.8,7.2l2.7,0l0,1.6l-2.7,0l0,2.7l-1.6,0l-0,-2.7l-2.7,0l-0,-1.6l2.7,-0l-0,-2.7l1.6,-0l0,2.7Z" style="fill:#59a869;"/>
        <path d="M15,11c0,0.653 0.417,1.209 1,1.415l0,1.544c-1.419,-0.239 -2.5,-1.473 -2.5,-2.959l0,-7c0,-0.828 -0.665,-1.5 -1.486,-1.5l-7.928,0c-0.821,0 -1.486,0.672 -1.486,1.5l0,7c0,1.521 -1.132,2.778 -2.6,2.974l0,-1.559c0.583,-0.206 1,-0.762 1,-1.415l0,-7c0,-1.657 1.343,-3 3,-3l8,0c1.657,0 3,1.343 3,3l0,7Z" style="fill:#6e6e6e;"/>
    </g>
</svg>
