<svg xmlns="http://www.w3.org/2000/svg" width="16" height="16" viewBox="0 0 16 16">
    <path d="M4.5,4c-0.276,0 -0.5,0.224 -0.5,0.5l0,7c0,0.276 0.224,0.5 0.5,0.5l1,0l0,2l-1,0c-1.381,0 -2.5,-1.119 -2.5,-2.5l0,-2.219l-1.243,-0.311l0,-1.94l1.243,-0.311l0,-2.219c0,-1.381 1.119,-2.5 2.5,-2.5l1,0l0,2l-1,0Z" style="fill:#389fd6;"/>
    <path d="M11.5,12c0.276,0 0.5,-0.224 0.5,-0.5l0,-7c0,-0.276 -0.224,-0.5 -0.5,-0.5l-1,0l0,-2l1,0c1.381,0 2.5,1.119 2.5,2.5l0,2.219l1.242,0.311l0,1.94l-1.242,0.311l0,2.219c0,1.381 -1.119,2.5 -2.5,2.5l-1,0l0,-2l1,0Z" style="fill:#389fd6;"/>
</svg>
