<svg xmlns="http://www.w3.org/2000/svg" width="16" height="16" viewBox="0 0 16 16">
    <g>
        <path d="M8.864,6l-1,1l-4.864,0l0,-1l5.864,0Zm2,-2l-1,1l-6.864,0l0,-1l7.864,0Zm-4,4l-1,1l-2.864,0l0,-1l3.864,0Z" style="fill:#afb1b3;"/>
        <path d="M13.108,7.962l-2.07,-2.07l-5.038,5.009l0,2.071l2.07,0l5.038,-5.01Zm1.726,-1.725c0.221,-0.222 0.221,-0.814 0,-1.036l-1.035,-1.035c-0.222,-0.221 -0.814,-0.221 -1.036,0l-1.035,1.035l2.071,2.071l1.035,-1.035Z" style="fill:#f0a732;"/>
    </g>
</svg>
