<svg xmlns="http://www.w3.org/2000/svg" width="16" height="16" viewBox="0 0 16 16">
    <g>
        <path d="M7.642,8.222l-0.845,0.845l-1.226,-2.051l-1.435,0l0,2.684l-1.146,0l0,-7.7l2.908,0c0.82,0 1.463,0.286 1.882,0.77c0.345,0.418 0.541,0.99 0.541,1.661c0,1.287 -0.643,2.046 -1.547,2.354l0.868,1.437Zm-3.299,-2.405l1.424,0c0.697,0 1.14,-0.506 1.14,-1.287l0,-0.022c0,-0.825 -0.427,-1.276 -1.147,-1.276l-1.417,0l0,2.585Z" style="fill:#6e6e6e;"/>
        <path d="M13.108,8.962l-2.07,-2.07l-5.038,5.009l0,2.071l2.07,0l5.038,-5.01Zm1.726,-1.725c0.221,-0.222 0.221,-0.814 0,-1.036l-1.035,-1.035c-0.222,-0.221 -0.814,-0.221 -1.036,0l-1.035,1.035l2.071,2.071l1.035,-1.035Z" style="fill:#eda200;"/>
    </g>
</svg>
