<svg xmlns="http://www.w3.org/2000/svg" width="16" height="16" viewBox="0 0 16 16">
    <path d="M12.365,12.119c-1.167,1.237 -2.849,1.973 -4.68,1.877c-2.956,-0.155 -5.299,-2.423 -5.643,-5.264l1.854,0.162c0.392,1.805 1.951,3.199 3.885,3.3c1.299,0.068 2.492,-0.462 3.31,-1.349l-2.079,-2.079l5,-0l0,4.999l-1.647,-1.646Zm-8.727,-8.236c1.166,-1.233 2.846,-1.966 4.675,-1.871c2.916,0.153 5.236,2.364 5.627,5.151l-1.859,-0.163c-0.429,-1.753 -1.965,-3.095 -3.861,-3.194c-1.3,-0.068 -2.492,0.462 -3.31,1.35l2.083,2.083l-5,0l0,-5l1.645,1.644Z" style="fill:#b066b0;fill-rule:nonzero;"/>
</svg>
