<svg xmlns="http://www.w3.org/2000/svg" width="16" height="16" viewBox="0 0 16 16">
    <path d="M8,6c-1.107,0 -2,0.893 -2,2c0,1.107 0.893,2 2,2c1.107,0 2,-0.893 2,-2c0,-1.107 -0.893,-2 -2,-2Z" style="fill:#b066b0;fill-rule:nonzero;"/>
    <path d="M8,3c-3.182,0 -5.899,2.073 -7,5c1.101,2.927 3.818,5 7,5c3.182,0 5.899,-2.073 7,-5c-1.101,-2.927 -3.818,-5 -7,-5Zm0,8.5c-1.932,0 -3.5,-1.568 -3.5,-3.5c0,-1.932 1.568,-3.5 3.5,-3.5c1.932,0 3.5,1.568 3.5,3.5c0,1.932 -1.568,3.5 -3.5,3.5Z" style="fill:#afb1b3;fill-rule:nonzero;"/>
</svg>
