<svg xmlns="http://www.w3.org/2000/svg" width="16" height="16" viewBox="0 0 16 16">
    <g>
        <path d="M10,7l-2,0l0,2c-1.107,0 -2,-0.893 -2,-2c0,-1.107 0.893,-2 2,-2c1.107,0 2,0.893 2,2Z" style="fill:#af74b1;fill-rule:nonzero;"/>
        <path d="M15,7l-3.5,0c0,-1.932 -1.568,-3.5 -3.5,-3.5c-1.932,0 -3.5,1.568 -3.5,3.5c0,1.932 1.568,3.5 3.5,3.5l0,1.5c-3.182,0 -5.899,-2.073 -7,-5c1.101,-2.927 3.818,-5 7,-5c3.182,0 5.899,2.073 7,5Z" style="fill:#6e6e6e;fill-rule:nonzero;"/>
        <path d="M9,8l7,0l0,8l-7,0l0,-8Zm1.5,4l0,1l4,0l0,-1l-4,0Zm0,-2l0,1l4,0l0,-1l-4,0Z" style="fill:#6e6e6e;"/>
    </g>
</svg>
