<svg xmlns="http://www.w3.org/2000/svg" width="16" height="16" viewBox="0 0 16 16">
    <g>
        <path d="M9.48,9.346l-0.806,0.538c-0.211,0.075 -0.437,0.116 -0.674,0.116c-1.107,0 -2,-0.893 -2,-2c0,-1.107 0.893,-2 2,-2c1.107,0 2,0.893 2,2c0,0.519 -0.197,0.991 -0.52,1.346Z" style="fill:#b066b0;"/>
        <path d="M4.988,12.341c-1.816,-0.834 -3.258,-2.4 -3.988,-4.341c1.101,-2.927 3.818,-5 7,-5c3.182,0 5.899,2.073 7,5c-0.233,0.619 -0.538,1.2 -0.904,1.73l-1.096,-0.73l-1.645,0c0.094,-0.317 0.145,-0.653 0.145,-1c0,-1.932 -1.568,-3.5 -3.5,-3.5c-1.932,0 -3.5,1.568 -3.5,3.5c0,1.455 0.889,2.703 2.153,3.231l-1.665,1.11Z" style="fill:#afb1b3;"/>
        <path d="M7,13.6l0,-1.2l4,-2.4l0,1.2l-2.933,1.8l2.933,1.8l0,1.2l-4,-2.4Z" style="fill:#afb1b3;"/>
        <path d="M12,14.8l2.933,-1.8l-2.933,-1.8l0,-1.2l4,2.4l0,1.2l-4,2.4l0,-1.2Z" style="fill:#afb1b3;"/>
    </g>
</svg>
