<svg xmlns="http://www.w3.org/2000/svg" width="16" height="16" viewBox="0 0 16 16">
    <g>
        <path d="M13,4l2,0l-3,-3l-3,3l2,0l0,4l2,0l0,-4Z" style="fill:#389fd6;"/>
        <clipPath id="_clip1">
            <rect x="9" y="3" width="6" height="12"/>
        </clipPath>
        <g clip-path="url(#_clip1)">
            <path d="M13,12l2,0l-3,3l-3,-3l2,0l0,-4l2,0l0,4Zm-6,-8l-5,0l0,8l5,0l0,1l-6,0l0,-10l6,0l0,1Z" style="fill:#389fd6;"/>
        </g>
        <clipPath id="_clip2">
            <rect x="1" y="3" width="7" height="12"/>
        </clipPath>
        <g clip-path="url(#_clip2)">
            <path d="M13,12l2,0l-3,3l-3,-3l2,0l0,-4l2,0l0,4Zm-6,-8l-5,0l0,8l5,0l0,1l-6,0l0,-10l6,0l0,1Z" style="fill:#6e6e6e;"/>
        </g>
        <path d="M4,3l4,0l0,10l-4,0l0,-10Zm1,1l0,8l2,0l0,-8l-2,0Z" style="fill:#6e6e6e;"/>
    </g>
</svg>
