<svg xmlns="http://www.w3.org/2000/svg" width="16" height="16" viewBox="0 0 16 16">
    <g>
        <clipPath id="_clip1">
            <rect x="2.998" y="1.64" width="10.006" height="4.36"/>
        </clipPath>
        <g clip-path="url(#_clip1)">
            <path d="M3,7l4,0l0,7l-4,0l0,-7Zm1,1l0,5l2,0l0,-5l-2,0Zm5,-1l4,0l0,7l-4,0l0,-7Zm1,1l0,5l2,0l0,-5l-2,0Zm0.577,-3.759c-0.64,-0.676 -1.547,-1.098 -2.552,-1.098c-1.018,0 -1.934,0.432 -2.576,1.123l1.733,1.732l-2.61,0c0,0.001 0,0.001 -0.001,0.002l-1.528,0c0,-0.001 0,-0.001 0,-0.002l-0.045,0l0,-4.184l1.386,1.386c0.914,-0.961 2.206,-1.56 3.637,-1.56c1.421,0 2.705,0.591 3.618,1.54l1.365,-1.366l0,4.184l-0.005,0c0,0.001 0,0.001 0,0.002l-1.521,0c0,-0.001 0,-0.001 0,-0.002l-2.658,0l1.757,-1.757Z" style="fill:#3592c4;"/>
        </g>
        <clipPath id="_clip2">
            <rect x="2.998" y="7" width="10.006" height="7"/>
        </clipPath>
        <g clip-path="url(#_clip2)">
            <path d="M3,7l4,0l0,7l-4,0l0,-7Zm1,1l0,5l2,0l0,-5l-2,0Zm5,-1l4,0l0,7l-4,0l0,-7Zm1,1l0,5l2,0l0,-5l-2,0Zm0.577,-3.759c-0.64,-0.676 -1.547,-1.098 -2.552,-1.098c-1.018,0 -1.934,0.432 -2.576,1.123l1.733,1.732l-2.61,0c0,0.001 0,0.001 -0.001,0.002l-1.528,0c0,-0.001 0,-0.001 0,-0.002l-0.045,0l0,-4.184l1.386,1.386c0.914,-0.961 2.206,-1.56 3.637,-1.56c1.421,0 2.705,0.591 3.618,1.54l1.365,-1.366l0,4.184l-0.005,0c0,0.001 0,0.001 0,0.002l-1.521,0c0,-0.001 0,-0.001 0,-0.002l-2.658,0l1.757,-1.757Z" style="fill:#afb1b3;"/>
        </g>
    </g>
</svg>
