<svg xmlns="http://www.w3.org/2000/svg" width="16" height="16" viewBox="0 0 16 16">
    <g>
        <rect x="5" y="3" width="2" height="10" style="fill:#59a869;"/>
        <path d="M11,9l0,-2l-10,0l0,2l10,0Z" style="fill:#59a869;"/>
        <path d="M9.3,9.54l2.5,6.46l-1,0l-2.5,-6.456l1,-0.004Zm2.7,1.46l0.832,0l0,0.961c0.223,-0.275 0.241,-0.961 1.538,-0.961c1.63,0 1.63,1.506 1.63,1.981l0,3.019l-1,0l0,-2.966c0,-0.287 -0.132,-1.141 -0.911,-1.153c-0.901,-0.013 -1.089,1.346 -1.089,1.654l0,2.465l-1,0l0,-5Z" style="fill:#6e6e6e;"/>
    </g>
</svg>
