<svg xmlns="http://www.w3.org/2000/svg" width="16" height="16" viewBox="0 0 16 16">
    <g>
        <rect x="5" y="3" width="2" height="10" style="fill:#499c54;"/>
        <path d="M11,9l0,-2l-10,0l0,2l10,0Z" style="fill:#499c54;"/>
        <g>
            <circle cx="12.5" cy="12.3" r="3.5" style="fill:#40b6e0;fill-opacity:0.6;"/>
            <path d="M13.822,13.183c-0.304,0.32 -0.733,0.431 -1.177,0.417c-0.73,-0.032 -1.296,-0.577 -1.266,-1.297c-0.013,-0.363 0.117,-0.707 0.362,-0.964c0.244,-0.258 0.583,-0.329 0.941,-0.339c0.422,-0.004 0.829,0.074 1.137,0.36l0.321,-0.341c-0.233,-0.23 -0.559,-0.566 -1.552,-0.566c-0.583,0 -0.996,0.178 -1.36,0.525c-0.364,0.348 -0.571,0.825 -0.576,1.325c0.004,1.029 0.903,1.862 1.936,1.859c1.166,-0.003 1.41,-0.462 1.572,-0.638l-0.338,-0.341Z" style="fill:#231f20;fill-opacity:0.7;fill-rule:nonzero;"/>
        </g>
    </g>
</svg>
