<svg xmlns="http://www.w3.org/2000/svg" width="16" height="16" viewBox="0 0 16 16">
    <g>
        <rect x="5" y="3" width="2" height="10" style="fill:#59a869;"/>
        <path d="M11,9l0,-2l-10,0l0,2l10,0Z" style="fill:#59a869;"/>
        <path d="M12.875,16l1.25,0l0,-1.25l-1.25,0l0,1.25Zm0.625,-7.5c-1.381,0 -2.5,1.119 -2.5,2.5l1.25,0c0,-0.688 0.563,-1.25 1.25,-1.25c0.688,0 1.25,0.563 1.25,1.25c0,1.25 -1.875,1.094 -1.875,3.125l1.25,0c0,-1.406 1.875,-1.563 1.875,-3.125c0,-1.381 -1.119,-2.5 -2.5,-2.5Z" style="fill:#6e6e6e;fill-rule:nonzero;"/>
    </g>
</svg>
