<svg xmlns="http://www.w3.org/2000/svg" width="16" height="16" viewBox="0 0 16 16">
    <g>
        <rect x="5" y="3" width="2" height="10" style="fill:#59a869;"/>
        <path d="M11,9l0,-2l-10,0l0,2l10,0Z" style="fill:#59a869;"/>
        <path d="M10,16l0,-6l2.683,0c0.757,0 1.35,0.204 1.737,0.582c0.319,0.327 0.58,0.773 0.58,1.298c0,1.006 -0.674,1.6 -1.508,1.841l1.625,2.279l-1.256,0l-1.479,-2l-1.382,0l0,2l-1,0Zm1,-3.036l1.606,0c0.757,0 1.394,-0.395 1.394,-1.006l0,-0.017c0,-0.645 -0.62,-0.998 -1.403,-0.998l-1.597,0l0,2.021Z" style="fill:#6e6e6e;"/>
    </g>
</svg>
