<svg xmlns="http://www.w3.org/2000/svg" width="13" height="13" viewBox="0 0 13 13">
    <g>
        <path d="M8.708,9.527l0.459,-0.588c-0,0 -1.045,0.261 -2.793,0.261c-1.749,-0 -2.778,-0.255 -2.778,-0.255l0.515,0.641l0.182,2.018c-0,0.216 0.951,0.391 2.124,0.391c1.173,0 2.125,-0.175 2.125,-0.391l0.166,-2.077Zm0.562,-9.517l-1,-0.021l-0.93,2.011c-0.305,-0.008 -0.611,-0 -0.916,-0c-2.154,-0 -3.9,0.173 -3.9,0.4c-0,0.227 1.746,0.6 3.9,0.6c2.154,-0 3.9,-0.373 3.9,-0.6c-0,-0.167 -0.625,-0.336 -1.984,-0.4l0.93,-1.99Zm0.98,3c-0,0.005 -0.527,0.59 -3.877,0.59c-3.35,-0 -3.822,-0.59 -3.822,-0.59l0.853,5.17c0,0 0.736,0.32 2.951,0.32c2.215,-0 2.978,-0.31 2.978,-0.31l0.917,-5.18Z" style="fill:#db5860;fill-rule:nonzero;"/>
    </g>
</svg>
