<svg xmlns="http://www.w3.org/2000/svg" width="16" height="16" viewBox="0 0 16 16">
    <g>
        <rect x="5" y="3" width="2" height="7" style="fill:#59a869;"/>
        <path d="M11,9l0,-2l-10,0l0,2l10,0Z" style="fill:#59a869;"/>
        <g>
            <path d="M5,11l8,0l0,1c0,2.209 -1.791,4 -4,4c-2.209,0 -4,-1.791 -4,-4l0,-1Z" style="fill:#40b6e0;"/>
            <path d="M10.5,12l4,0c0.828,0 1.5,0.672 1.5,1.5c0,0.828 -0.672,1.5 -1.5,1.5l-4,0c-0.828,0 -1.5,-0.672 -1.5,-1.5c0,-0.828 0.672,-1.5 1.5,-1.5Zm0,1c-0.276,0 -0.5,0.224 -0.5,0.5c0,0.276 0.224,0.5 0.5,0.5l4,0c0.276,0 0.5,-0.224 0.5,-0.5c0,-0.276 -0.224,-0.5 -0.5,-0.5l-4,0Z" style="fill:#40b6e0;"/>
        </g>
    </g>
</svg>
