<svg xmlns="http://www.w3.org/2000/svg" width="13" height="13" viewBox="0 0 13 13">
    <path d="M5.613,11.311c-0.14,0.156 -0.407,0.145 -0.592,0.007c-0.061,-0.051 -0.266,-0.235 -0.356,-0.46c-0.064,-0.18 0.032,-0.267 0.269,-0.272l0.765,0c0.244,0.008 0.296,0.101 0.252,0.236c-0.028,0.067 -0.143,0.286 -0.338,0.489Zm-2.294,-6.822c-0.121,-0.044 -0.238,-0.081 -0.351,-0.105c1.098,-0.259 1.908,0.521 2.16,0.804c0.433,0.485 0.923,0.222 0.923,0.222c0.008,0.28 -0.268,0.481 -0.549,0.493c0.031,0.391 -0.361,0.823 -0.361,0.823c0,-0 0.145,-0.38 0.069,-0.639c-0.022,-0.079 -0.05,-0.153 -0.076,-0.214c-0.501,0.436 -1.247,0.038 -1.426,-0.155c-0.249,-0.268 -0.32,-0.603 -0.331,-0.863c-0.048,0.096 -0.088,0.23 -0.105,0.419c-0,-0 -0.166,-0.231 -0.136,-0.485c0.015,-0.125 0.076,-0.254 0.183,-0.3Zm4.725,6.829c-0.17,0.145 -0.434,0.132 -0.592,-0.006c-0.195,-0.203 -0.311,-0.422 -0.339,-0.489c-0.05,-0.152 0.033,-0.231 0.254,-0.236l0.764,-0c0.327,0.013 0.311,0.169 0.269,0.272c-0.09,0.225 -0.296,0.408 -0.356,0.459Zm1.703,-6.829c0.107,0.046 0.427,0.175 0.442,0.3c0.03,0.254 -0.396,0.484 -0.396,0.484c-0.017,-0.188 -0.057,-0.323 -0.104,-0.419c-0.011,0.261 -0.083,0.596 -0.332,0.864c-0.179,0.193 -0.925,0.591 -1.425,0.155c-0.026,0.061 -0.054,0.135 -0.077,0.214c-0.076,0.259 0.069,0.639 0.069,0.639c-0,-0 -0.391,-0.432 -0.36,-0.823c-0.281,-0.012 -0.557,-0.213 -0.549,-0.493c-0,-0 0.49,0.262 0.922,-0.222c0.253,-0.283 1.063,-1.063 2.161,-0.804c-0.113,0.024 -0.23,0.061 -0.351,0.105Zm-5.627,6.905c0.534,1.938 4.001,2.283 4.826,0c2.637,-0.163 2.664,-2.444 1.672,-3.368c-0.062,0.452 -0.338,0.857 -0.639,1.107c-0.079,-0.575 -0.096,-1.404 -0.096,-1.578c-0.08,-0.959 1.511,-0.779 1.583,-1.882c-0.014,-0.55 -0.378,-0.629 -0.57,-0.855c-0.113,-0.248 -0.092,-0.867 -0.043,-0.952c0.602,-0.788 0.355,-1.488 -0.568,-1.535c-0.081,-0.383 -0.086,-0.603 0.157,-0.796c0.237,-0.19 0.525,-0.282 0.924,-0.347c-1.045,-1.194 -2.571,-0.682 -3.321,0.41c-0.082,-0.025 -0.165,-0.048 -0.249,-0.068c-0.109,-0.4 0.233,-0.973 0.233,-0.973c-0,-0 -0.352,-0.077 -0.875,0.385c-0.068,-0.164 -0.21,-0.519 -0.045,-0.942c-0.766,0.263 -0.959,0.665 -1.017,1.029c-0.197,-0.137 -0.175,-0.583 -0.186,-0.697c-0.196,0.022 -0.757,0.553 -0.732,1.222c-0.051,0.013 -0.102,0.027 -0.152,0.043c-1.158,-1.544 -2.764,-1.239 -3.322,-0.411c1.143,0.21 1.219,0.568 1.081,1.144c-0.995,0.056 -1.117,0.811 -0.568,1.535c0,-0 0.114,0.564 -0.05,0.962c-0.035,0.084 -0.563,0.265 -0.563,0.845c0.019,1.086 1.587,0.858 1.583,1.882c-0,0.174 -0.017,1.003 -0.097,1.578c-0.3,-0.25 -0.576,-0.654 -0.639,-1.107c-1.051,0.967 -0.841,3.211 1.673,3.369Z" style="fill:#c75450;fill-rule:nonzero;"/>
</svg>
